<svg xmlns="http://www.w3.org/2000/svg" xmlns:xlink="http://www.w3.org/1999/xlink" id="Layer_1" x="0" y="0" version="1.1" viewBox="0 0 405 405" xml:space="preserve" style="enable-background:new 0 0 405 405"><style type="text/css">.st0{fill:#fff}</style><linearGradient id="SVGID_1_" x1="-410.962" x2="-409.962" y1="-92.988" y2="-92.988" gradientUnits="userSpaceOnUse"><stop offset="0" style="stop-color:#01a14a"/><stop offset=".003" style="stop-color:#0aa348"/><stop offset=".02" style="stop-color:#42b13b"/><stop offset=".038" style="stop-color:#74bd2f"/><stop offset=".056" style="stop-color:#9fc725"/><stop offset=".074" style="stop-color:#c1cf1d"/><stop offset=".092" style="stop-color:#dcd617"/><stop offset=".111" style="stop-color:#efda13"/><stop offset=".13" style="stop-color:#fadd10"/><stop offset=".15" style="stop-color:#fede0f"/><stop offset=".3" style="stop-color:#f16624"/><stop offset=".47" style="stop-color:#01a14a"/><stop offset=".64" style="stop-color:#fede0f"/><stop offset=".801" style="stop-color:#f16624"/><stop offset="1" style="stop-color:#01a14a"/></linearGradient><path d="M340.7,115.2c-10.1,4.5-20.9,7.5-32.2,8.8c11.6-6.9,20.5-17.9,24.7-31c-10.8,6.4-22.8,11.1-35.6,13.6	c-10.2-10.9-24.8-17.7-40.9-17.7c-31,0-56.1,25.1-56.1,56.1c0,4.4,0.5,8.7,1.5,12.8c-46.6-2.3-87.9-24.7-115.6-58.6	c-4.8,8.3-7.6,17.9-7.6,28.2c0,19.5,9.9,36.6,25,46.7c-9.2-0.3-17.8-2.8-25.4-7c0,0.2,0,0.5,0,0.7c0,27.2,19.3,49.8,45,55	c-4.7,1.3-9.7,2-14.8,2c-3.6,0-7.1-0.4-10.6-1c7.1,22.3,27.9,38.5,52.4,39c-19.2,15-43.4,24-69.7,24c-4.5,0-9-0.3-13.4-0.8	c24.8,15.9,54.3,25.2,86,25.2c103.2,0,159.6-85.5,159.6-159.6c0-2.4-0.1-4.9-0.2-7.3C323.7,136.4,333.2,126.5,340.7,115.2z" class="st0"/></svg>